<svg xmlns="http://www.w3.org/2000/svg" width="960" height="768" viewBox="0 0 960 768" role="img" aria-label="server-shell-setup">
  <title>server-shell-setup</title>
  <defs>
    <radialGradient id="glow" cx="0.12" cy="0.05" r="0.9">
      <stop offset="0" stop-color="#ea580c" stop-opacity="0.55"/>
      <stop offset="0.55" stop-color="#ea580c" stop-opacity="0.08"/>
      <stop offset="1" stop-color="#ea580c" stop-opacity="0"/>
    </radialGradient>
    <linearGradient id="fade" x1="0" y1="0" x2="0" y2="1">
      <stop offset="0" stop-color="#09090b" stop-opacity="0"/>
      <stop offset="1" stop-color="#09090b" stop-opacity="0.9"/>
    </linearGradient>
    <pattern id="grid" width="48" height="48" patternUnits="userSpaceOnUse">
      <path d="M48 0H0V48" fill="none" stroke="#ffffff" stroke-opacity="0.05"/>
    </pattern>
  </defs>
  <rect width="960" height="768" fill="#09090b"/>
  <rect width="960" height="768" fill="url(#grid)"/>
  <rect width="960" height="768" fill="url(#glow)"/>
  <g transform="translate(580 40)" opacity="0.07"><svg xmlns="http://www.w3.org/2000/svg" width="360" height="360" viewBox="0 0 24 24" fill="none" stroke="#fb923c" stroke-width="1.25" stroke-linecap="round" stroke-linejoin="round" class="lucide lucide-hard-drive" aria-hidden="true"><path d="M10 16h.01"></path><path d="M2.212 11.577a2 2 0 0 0-.212.896V18a2 2 0 0 0 2 2h16a2 2 0 0 0 2-2v-5.527a2 2 0 0 0-.212-.896L18.55 5.11A2 2 0 0 0 16.76 4H7.24a2 2 0 0 0-1.79 1.11z"></path><path d="M21.946 12.013H2.054"></path><path d="M6 16h.01"></path></svg></g>
  <rect width="960" height="768" fill="url(#fade)"/>

  <g transform="translate(64 64)">
    <rect width="104" height="104" rx="24" fill="#fb923c" fill-opacity="0.12" stroke="#fb923c" stroke-opacity="0.35" stroke-width="2"/>
    <g transform="translate(24 24)"><svg xmlns="http://www.w3.org/2000/svg" width="56" height="56" viewBox="0 0 24 24" fill="none" stroke="#fb923c" stroke-width="1.75" stroke-linecap="round" stroke-linejoin="round" class="lucide lucide-hard-drive" aria-hidden="true"><path d="M10 16h.01"></path><path d="M2.212 11.577a2 2 0 0 0-.212.896V18a2 2 0 0 0 2 2h16a2 2 0 0 0 2-2v-5.527a2 2 0 0 0-.212-.896L18.55 5.11A2 2 0 0 0 16.76 4H7.24a2 2 0 0 0-1.79 1.11z"></path><path d="M21.946 12.013H2.054"></path><path d="M6 16h.01"></path></svg></g>
  </g>
  <text x="196" y="108" font-family="ui-sans-serif, system-ui, -apple-system, 'Segoe UI', Roboto, Helvetica, Arial, sans-serif" font-size="20" font-weight="600" letter-spacing="3" fill="#fb923c">CLI TOOLS</text>
  <text x="196" y="144" font-family="ui-monospace, SFMono-Regular, Menlo, Monaco, Consolas, 'Liberation Mono', monospace" font-size="20" fill="#a1a1aa">packages/server-shell-setup</text>

  <text x="64" y="250" font-family="ui-sans-serif, system-ui, -apple-system, 'Segoe UI', Roboto, Helvetica, Arial, sans-serif" font-size="60" font-weight="800" letter-spacing="-1" fill="#fafafa">server-shell-setup</text>
  <text x="64" y="336" font-family="ui-sans-serif, system-ui, -apple-system, 'Segoe UI', Roboto, Helvetica, Arial, sans-serif" font-size="26" fill="#d4d4d8">One-command bootstrap for a modern dev environment:</text>
  <text x="64" y="372" font-family="ui-sans-serif, system-ui, -apple-system, 'Segoe UI', Roboto, Helvetica, Arial, sans-serif" font-size="26" fill="#d4d4d8">installs fish, nvim, nushell, bun, node, helix, starship,</text>
  <text x="64" y="408" font-family="ui-sans-serif, system-ui, -apple-system, 'Segoe UI', Roboto, Helvetica, Arial, sans-serif" font-size="26" fill="#d4d4d8">docker, and more.</text>

  <g transform="translate(64 480)">
    <rect width="832" height="232" rx="18" fill="#18181b" stroke="#ffffff" stroke-opacity="0.1" stroke-width="2"/>
    <circle cx="32" cy="30" r="7" fill="#f87171"/>
    <circle cx="56" cy="30" r="7" fill="#fbbf24"/>
    <circle cx="80" cy="30" r="7" fill="#4ade80"/>
    <line x1="0" y1="58" x2="832" y2="58" stroke="#ffffff" stroke-opacity="0.08" stroke-width="2"/>
    <text x="32" y="108" font-family="ui-monospace, SFMono-Regular, Menlo, Monaco, Consolas, 'Liberation Mono', monospace" font-size="26"><tspan fill="#fb923c">$ </tspan><tspan fill="#e4e4e7">wget -qO- tinyurl.com/shellsetup | bash</tspan></text>
    <text x="32" y="158" font-family="ui-monospace, SFMono-Regular, Menlo, Monaco, Consolas, 'Liberation Mono', monospace" font-size="26" fill="#fb923c">$</text>
    <rect x="62" y="136" width="14" height="28" fill="#fb923c" fill-opacity="0.8"/>
  </g>
</svg>
